<svg stroke="#000" stroke-width="0.03em" fill="none" viewBox="0 0 1600 800" width="100%" xmlns="http://www.w3.org/2000/svg"><g><text x="0" y="7" stroke-width="0.03" fill="#222" font-size="0.3em" font-family="monospace">0:00(0)</text><line x1="0" x2="0" y1="7" y2="100%" stroke="#222" stroke-dasharray="3,1"></line></g><g><text x="37.03703703703704" y="14" transform="translate(-5 -1)" stroke-width="0.03" fill="#222" font-size="0.6em" font-family="monospace">1:35(1)</text><line x1="37.03703703703704" x2="37.03703703703704" y1="14" y2="100%" stroke="#222" stroke-dasharray="3,1"></line></g><g><text x="66.66666666666666" y="7" transform="translate(-5 -1)" stroke-width="0.03" fill="#222" font-size="0.6em" font-family="monospace">2:51(2)</text><line x1="66.66666666666666" x2="66.66666666666666" y1="7" y2="100%" stroke="#222" stroke-dasharray="3,1"></line></g><g><text x="85.18518518518519" y="14" transform="translate(-5 -1)" stroke-width="0.03" fill="#222" font-size="0.6em" font-family="monospace">3:39(3)</text><line x1="85.18518518518519" x2="85.18518518518519" y1="14" y2="100%" stroke="#222" stroke-dasharray="3,1"></line></g><g><text x="114.81481481481481" y="7" transform="translate(-5 -1)" stroke-width="0.03" fill="#222" font-size="0.6em" font-family="monospace">4:56(4)</text><line x1="114.81481481481481" x2="114.81481481481481" y1="7" y2="100%" stroke="#222" stroke-dasharray="3,1"></line></g><g><text x="125.92592592592592" y="14" transform="translate(-5 -1)" stroke-width="0.03" fill="#222" font-size="0.6em" font-family="monospace">5:24(5)</text><line x1="125.92592592592592" x2="125.92592592592592" y1="14" y2="100%" stroke="#222" stroke-dasharray="3,1"></line></g><g><text x="162.962962962963" y="7" transform="translate(-5 -1)" stroke-width="0.03" fill="#222" font-size="0.6em" font-family="monospace">7:00(6)</text><line x1="162.962962962963" x2="162.962962962963" y1="7" y2="100%" stroke="#222" stroke-dasharray="3,1"></line></g><g><text x="192.5925925925926" y="14" transform="translate(-5 -1)" stroke-width="0.03" fill="#222" font-size="0.6em" font-family="monospace">8:16(7)</text><line x1="192.5925925925926" x2="192.5925925925926" y1="14" y2="100%" stroke="#222" stroke-dasharray="3,1"></line></g><g><text x="211.11111111111111" y="7" transform="translate(-5 -1)" stroke-width="0.03" fill="#222" font-size="0.6em" font-family="monospace">9:04(8)</text><line x1="211.11111111111111" x2="211.11111111111111" y1="7" y2="100%" stroke="#222" stroke-dasharray="3,1"></line></g><g><text x="240.74074074074073" y="14" transform="translate(-10 -1)" stroke-width="0.03" fill="#222" font-size="0.6em" font-family="monospace">10:20(9)</text><line x1="240.74074074074073" x2="240.74074074074073" y1="14" y2="100%" stroke="#222" stroke-dasharray="3,1"></line></g><g><text x="270.3703703703704" y="7" transform="translate(-10 -1)" stroke-width="0.03" fill="#222" font-size="0.6em" font-family="monospace">11:37(10)</text><line x1="270.3703703703704" x2="270.3703703703704" y1="7" y2="100%" stroke="#222" stroke-dasharray="3,1"></line></g><g><text x="288.88888888888886" y="14" transform="translate(-10 -1)" stroke-width="0.03" fill="#222" font-size="0.6em" font-family="monospace">12:24(11)</text><line x1="288.88888888888886" x2="288.88888888888886" y1="14" y2="100%" stroke="#222" stroke-dasharray="3,1"></line></g><g><text x="318.51851851851853" y="7" transform="translate(-10 -1)" stroke-width="0.03" fill="#222" font-size="0.6em" font-family="monospace">13:41(12)</text><line x1="318.51851851851853" x2="318.51851851851853" y1="7" y2="100%" stroke="#222" stroke-dasharray="3,1"></line></g><g><text x="329.6296296296296" y="14" transform="translate(-10 -1)" stroke-width="0.03" fill="#222" font-size="0.6em" font-family="monospace">14:09(13)</text><line x1="329.6296296296296" x2="329.6296296296296" y1="14" y2="100%" stroke="#222" stroke-dasharray="3,1"></line></g><g><text x="366.66666666666663" y="7" transform="translate(-10 -1)" stroke-width="0.03" fill="#222" font-size="0.6em" font-family="monospace">15:45(14)</text><line x1="366.66666666666663" x2="366.66666666666663" y1="7" y2="100%" stroke="#222" stroke-dasharray="3,1"></line></g><g><text x="396.2962962962963" y="14" transform="translate(-10 -1)" stroke-width="0.03" fill="#222" font-size="0.6em" font-family="monospace">17:01(15)</text><line x1="396.2962962962963" x2="396.2962962962963" y1="14" y2="100%" stroke="#222" stroke-dasharray="3,1"></line></g><g><text x="414.8148148148148" y="7" transform="translate(-10 -1)" stroke-width="0.03" fill="#222" font-size="0.6em" font-family="monospace">17:49(16)</text><line x1="414.8148148148148" x2="414.8148148148148" y1="7" y2="100%" stroke="#222" stroke-dasharray="3,1"></line></g><g><text x="444.44444444444446" y="14" transform="translate(-10 -1)" stroke-width="0.03" fill="#222" font-size="0.6em" font-family="monospace">19:06(17)</text><line x1="444.44444444444446" x2="444.44444444444446" y1="14" y2="100%" stroke="#222" stroke-dasharray="3,1"></line></g><g><text x="455.55555555555554" y="7" transform="translate(-10 -1)" stroke-width="0.03" fill="#222" font-size="0.6em" font-family="monospace">19:34(18)</text><line x1="455.55555555555554" x2="455.55555555555554" y1="7" y2="100%" stroke="#222" stroke-dasharray="3,1"></line></g><g><text x="492.59259259259255" y="14" transform="translate(-10 -1)" stroke-width="0.03" fill="#222" font-size="0.6em" font-family="monospace">21:10(19)</text><line x1="492.59259259259255" x2="492.59259259259255" y1="14" y2="100%" stroke="#222" stroke-dasharray="3,1"></line></g><g><text x="522.2222222222222" y="7" transform="translate(-10 -1)" stroke-width="0.03" fill="#222" font-size="0.6em" font-family="monospace">22:26(20)</text><line x1="522.2222222222222" x2="522.2222222222222" y1="7" y2="100%" stroke="#222" stroke-dasharray="3,1"></line></g><g><text x="540.7407407407406" y="14" transform="translate(-10 -1)" stroke-width="0.03" fill="#222" font-size="0.6em" font-family="monospace">23:14(21)</text><line x1="540.7407407407406" x2="540.7407407407406" y1="14" y2="100%" stroke="#222" stroke-dasharray="3,1"></line></g><g><text x="570.3703703703702" y="7" transform="translate(-10 -1)" stroke-width="0.03" fill="#222" font-size="0.6em" font-family="monospace">24:30(22)</text><line x1="570.3703703703702" x2="570.3703703703702" y1="7" y2="100%" stroke="#222" stroke-dasharray="3,1"></line></g><g><text x="599.9999999999998" y="14" transform="translate(-10 -1)" stroke-width="0.03" fill="#222" font-size="0.6em" font-family="monospace">25:47(23)</text><line x1="599.9999999999998" x2="599.9999999999998" y1="14" y2="100%" stroke="#222" stroke-dasharray="3,1"></line></g><g><text x="618.5185185185184" y="7" transform="translate(-10 -1)" stroke-width="0.03" fill="#222" font-size="0.6em" font-family="monospace">26:34(24)</text><line x1="618.5185185185184" x2="618.5185185185184" y1="7" y2="100%" stroke="#222" stroke-dasharray="3,1"></line></g><g><text x="648.1481481481479" y="14" transform="translate(-10 -1)" stroke-width="0.03" fill="#222" font-size="0.6em" font-family="monospace">27:51(25)</text><line x1="648.1481481481479" x2="648.1481481481479" y1="14" y2="100%" stroke="#222" stroke-dasharray="3,1"></line></g><g><text x="659.259259259259" y="7" transform="translate(-10 -1)" stroke-width="0.03" fill="#222" font-size="0.6em" font-family="monospace">28:19(26)</text><line x1="659.259259259259" x2="659.259259259259" y1="7" y2="100%" stroke="#222" stroke-dasharray="3,1"></line></g><g><text x="696.296296296296" y="14" transform="translate(-10 -1)" stroke-width="0.03" fill="#222" font-size="0.6em" font-family="monospace">29:55(27)</text><line x1="696.296296296296" x2="696.296296296296" y1="14" y2="100%" stroke="#222" stroke-dasharray="3,1"></line></g><g><text x="725.9259259259256" y="7" transform="translate(-10 -1)" stroke-width="0.03" fill="#222" font-size="0.6em" font-family="monospace">31:11(28)</text><line x1="725.9259259259256" x2="725.9259259259256" y1="7" y2="100%" stroke="#222" stroke-dasharray="3,1"></line></g><g><text x="744.4444444444441" y="14" transform="translate(-10 -1)" stroke-width="0.03" fill="#222" font-size="0.6em" font-family="monospace">31:59(29)</text><line x1="744.4444444444441" x2="744.4444444444441" y1="14" y2="100%" stroke="#222" stroke-dasharray="3,1"></line></g><g><text x="774.0740740740737" y="7" transform="translate(-10 -1)" stroke-width="0.03" fill="#222" font-size="0.6em" font-family="monospace">33:15(30)</text><line x1="774.0740740740737" x2="774.0740740740737" y1="7" y2="100%" stroke="#222" stroke-dasharray="3,1"></line></g><g><text x="803.7037037037032" y="14" transform="translate(-10 -1)" stroke-width="0.03" fill="#222" font-size="0.6em" font-family="monospace">34:32(31)</text><line x1="803.7037037037032" x2="803.7037037037032" y1="14" y2="100%" stroke="#222" stroke-dasharray="3,1"></line></g><g><text x="822.2222222222218" y="7" transform="translate(-10 -1)" stroke-width="0.03" fill="#222" font-size="0.6em" font-family="monospace">35:20(32)</text><line x1="822.2222222222218" x2="822.2222222222218" y1="7" y2="100%" stroke="#222" stroke-dasharray="3,1"></line></g><g><text x="851.8518518518514" y="14" transform="translate(-10 -1)" stroke-width="0.03" fill="#222" font-size="0.6em" font-family="monospace">36:36(33)</text><line x1="851.8518518518514" x2="851.8518518518514" y1="14" y2="100%" stroke="#222" stroke-dasharray="3,1"></line></g><g><text x="862.9629629629625" y="7" transform="translate(-10 -1)" stroke-width="0.03" fill="#222" font-size="0.6em" font-family="monospace">37:05(34)</text><line x1="862.9629629629625" x2="862.9629629629625" y1="7" y2="100%" stroke="#222" stroke-dasharray="3,1"></line></g><g><text x="899.9999999999994" y="14" transform="translate(-10 -1)" stroke-width="0.03" fill="#222" font-size="0.6em" font-family="monospace">38:40(35)</text><line x1="899.9999999999994" x2="899.9999999999994" y1="14" y2="100%" stroke="#222" stroke-dasharray="3,1"></line></g><g><text x="929.6296296296291" y="7" transform="translate(-10 -1)" stroke-width="0.03" fill="#222" font-size="0.6em" font-family="monospace">39:57(36)</text><line x1="929.6296296296291" x2="929.6296296296291" y1="7" y2="100%" stroke="#222" stroke-dasharray="3,1"></line></g><g><text x="948.1481481481476" y="14" transform="translate(-10 -1)" stroke-width="0.03" fill="#222" font-size="0.6em" font-family="monospace">40:44(37)</text><line x1="948.1481481481476" x2="948.1481481481476" y1="14" y2="100%" stroke="#222" stroke-dasharray="3,1"></line></g><g><text x="977.7777777777771" y="7" transform="translate(-10 -1)" stroke-width="0.03" fill="#222" font-size="0.6em" font-family="monospace">42:01(38)</text><line x1="977.7777777777771" x2="977.7777777777771" y1="7" y2="100%" stroke="#222" stroke-dasharray="3,1"></line></g><g><text x="988.8888888888882" y="14" transform="translate(-10 -1)" stroke-width="0.03" fill="#222" font-size="0.6em" font-family="monospace">42:29(39)</text><line x1="988.8888888888882" x2="988.8888888888882" y1="14" y2="100%" stroke="#222" stroke-dasharray="3,1"></line></g><g><text x="1025.9259259259252" y="7" transform="translate(-10 -1)" stroke-width="0.03" fill="#222" font-size="0.6em" font-family="monospace">44:05(40)</text><line x1="1025.9259259259252" x2="1025.9259259259252" y1="7" y2="100%" stroke="#222" stroke-dasharray="3,1"></line></g><g><text x="1055.5555555555547" y="14" transform="translate(-10 -1)" stroke-width="0.03" fill="#222" font-size="0.6em" font-family="monospace">45:21(41)</text><line x1="1055.5555555555547" x2="1055.5555555555547" y1="14" y2="100%" stroke="#222" stroke-dasharray="3,1"></line></g><g><text x="1074.0740740740735" y="7" transform="translate(-10 -1)" stroke-width="0.03" fill="#222" font-size="0.6em" font-family="monospace">46:09(42)</text><line x1="1074.0740740740735" x2="1074.0740740740735" y1="7" y2="100%" stroke="#222" stroke-dasharray="3,1"></line></g><g><text x="1103.703703703703" y="14" transform="translate(-10 -1)" stroke-width="0.03" fill="#222" font-size="0.6em" font-family="monospace">47:25(43)</text><line x1="1103.703703703703" x2="1103.703703703703" y1="14" y2="100%" stroke="#222" stroke-dasharray="3,1"></line></g><g><text x="1133.3333333333326" y="7" transform="translate(-10 -1)" stroke-width="0.03" fill="#222" font-size="0.6em" font-family="monospace">48:42(44)</text><line x1="1133.3333333333326" x2="1133.3333333333326" y1="7" y2="100%" stroke="#222" stroke-dasharray="3,1"></line></g><g><text x="1151.851851851851" y="14" transform="translate(-10 -1)" stroke-width="0.03" fill="#222" font-size="0.6em" font-family="monospace">49:30(45)</text><line x1="1151.851851851851" x2="1151.851851851851" y1="14" y2="100%" stroke="#222" stroke-dasharray="3,1"></line></g><g><text x="1181.4814814814806" y="7" transform="translate(-10 -1)" stroke-width="0.03" fill="#222" font-size="0.6em" font-family="monospace">50:46(46)</text><line x1="1181.4814814814806" x2="1181.4814814814806" y1="7" y2="100%" stroke="#222" stroke-dasharray="3,1"></line></g><g><text x="1192.5925925925917" y="14" transform="translate(-10 -1)" stroke-width="0.03" fill="#222" font-size="0.6em" font-family="monospace">51:15(47)</text><line x1="1192.5925925925917" x2="1192.5925925925917" y1="14" y2="100%" stroke="#222" stroke-dasharray="3,1"></line></g><g><text x="1229.6296296296287" y="7" transform="translate(-10 -1)" stroke-width="0.03" fill="#222" font-size="0.6em" font-family="monospace">52:50(48)</text><line x1="1229.6296296296287" x2="1229.6296296296287" y1="7" y2="100%" stroke="#222" stroke-dasharray="3,1"></line></g><g><text x="1259.2592592592582" y="14" transform="translate(-10 -1)" stroke-width="0.03" fill="#222" font-size="0.6em" font-family="monospace">54:06(49)</text><line x1="1259.2592592592582" x2="1259.2592592592582" y1="14" y2="100%" stroke="#222" stroke-dasharray="3,1"></line></g><g><text x="1277.7777777777767" y="7" transform="translate(-10 -1)" stroke-width="0.03" fill="#222" font-size="0.6em" font-family="monospace">54:54(50)</text><line x1="1277.7777777777767" x2="1277.7777777777767" y1="7" y2="100%" stroke="#222" stroke-dasharray="3,1"></line></g><g><text x="1307.4074074074065" y="14" transform="translate(-10 -1)" stroke-width="0.03" fill="#222" font-size="0.6em" font-family="monospace">56:11(51)</text><line x1="1307.4074074074065" x2="1307.4074074074065" y1="14" y2="100%" stroke="#222" stroke-dasharray="3,1"></line></g><g><text x="1337.037037037036" y="7" transform="translate(-10 -1)" stroke-width="0.03" fill="#222" font-size="0.6em" font-family="monospace">57:27(52)</text><line x1="1337.037037037036" x2="1337.037037037036" y1="7" y2="100%" stroke="#222" stroke-dasharray="3,1"></line></g><g><text x="1355.5555555555545" y="14" transform="translate(-10 -1)" stroke-width="0.03" fill="#222" font-size="0.6em" font-family="monospace">58:15(53)</text><line x1="1355.5555555555545" x2="1355.5555555555545" y1="14" y2="100%" stroke="#222" stroke-dasharray="3,1"></line></g><g><text x="1385.185185185184" y="7" transform="translate(-10 -1)" stroke-width="0.03" fill="#222" font-size="0.6em" font-family="monospace">59:31(54)</text><line x1="1385.185185185184" x2="1385.185185185184" y1="7" y2="100%" stroke="#222" stroke-dasharray="3,1"></line></g><g><text x="1396.2962962962952" y="14" transform="translate(-10 -1)" stroke-width="0.03" fill="#222" font-size="0.6em" font-family="monospace">60:00(55)</text><line x1="1396.2962962962952" x2="1396.2962962962952" y1="14" y2="100%" stroke="#222" stroke-dasharray="3,1"></line></g><g><text x="1414.8148148148136" y="7" transform="translate(-10 -1)" stroke-width="0.03" fill="#222" font-size="0.6em" font-family="monospace">60:48(56)</text><line x1="1414.8148148148136" x2="1414.8148148148136" y1="7" y2="100%" stroke="#222" stroke-dasharray="3,1"></line></g><g><text x="1444.4444444444432" y="14" transform="translate(-10 -1)" stroke-width="0.03" fill="#222" font-size="0.6em" font-family="monospace">62:04(57)</text><line x1="1444.4444444444432" x2="1444.4444444444432" y1="14" y2="100%" stroke="#222" stroke-dasharray="3,1"></line></g><g><text x="1481.4814814814802" y="7" transform="translate(-10 -1)" stroke-width="0.03" fill="#222" font-size="0.6em" font-family="monospace">63:39(58)</text><line x1="1481.4814814814802" x2="1481.4814814814802" y1="7" y2="100%" stroke="#222" stroke-dasharray="3,1"></line></g><g><text x="1492.5925925925912" y="14" transform="translate(-10 -1)" stroke-width="0.03" fill="#222" font-size="0.6em" font-family="monospace">64:08(59)</text><line x1="1492.5925925925912" x2="1492.5925925925912" y1="14" y2="100%" stroke="#222" stroke-dasharray="3,1"></line></g><g><text x="1522.2222222222208" y="7" transform="translate(-10 -1)" stroke-width="0.03" fill="#222" font-size="0.6em" font-family="monospace">65:25(60)</text><line x1="1522.2222222222208" x2="1522.2222222222208" y1="7" y2="100%" stroke="#222" stroke-dasharray="3,1"></line></g><g><text x="1559.259259259258" y="14" transform="translate(-10 -1)" stroke-width="0.03" fill="#222" font-size="0.6em" font-family="monospace">67:00(61)</text><line x1="1559.259259259258" x2="1559.259259259258" y1="14" y2="100%" stroke="#222" stroke-dasharray="3,1"></line></g><g><text x="1570.370370370369" y="7" transform="translate(-10 -1)" stroke-width="0.03" fill="#222" font-size="0.6em" font-family="monospace">67:29(62)</text><line x1="1570.370370370369" x2="1570.370370370369" y1="7" y2="100%" stroke="#222" stroke-dasharray="3,1"></line></g><g><text x="1599.9999999999986" y="14" transform="translate(-11.5 0)" stroke-width="0.03" fill="#222" font-size="0.3em" font-family="monospace">68:45(63)</text><line x1="1599.9999999999986" x2="1599.9999999999986" y1="14" y2="100%" stroke="#222" stroke-dasharray="3,1"></line></g></svg>
